<?xml version="1.0" standalone="no"?>
<!DOCTYPE svg PUBLIC "-//W3C//DTD SVG 20010904//EN"
 "http://www.w3.org/TR/2001/REC-SVG-20010904/DTD/svg10.dtd">
<svg version="1.0" xmlns="http://www.w3.org/2000/svg"
 width="700.000000pt" height="700.000000pt" viewBox="0 0 700.000000 700.000000"
 preserveAspectRatio="xMidYMid meet">
<metadata>
Created by potrace 1.11, written by Peter Selinger 2001-2013
</metadata>
<g transform="translate(0.000000,700.000000) scale(0.100000,-0.100000)"
fill="#000000" stroke="none">
<path d="M3225 6989 c-348 -28 -681 -105 -1004 -232 -345 -134 -671 -328 -968
-574 -128 -106 -376 -359 -486 -498 -416 -519 -664 -1124 -749 -1820 -19 -157
-16 -602 6 -770 90 -706 358 -1325 801 -1850 115 -136 348 -365 475 -466 526
-418 1091 -659 1761 -751 235 -32 642 -32 876 0 657 90 1198 316 1725 722 143
110 449 411 559 550 425 535 668 1113 755 1795 25 195 25 615 0 810 -106 829
-450 1526 -1037 2101 -595 581 -1339 916 -2183 984 -146 11 -383 11 -531 -1z
m465 -1628 l0 -188 38 -7 c20 -3 53 -6 72 -6 52 0 205 -35 290 -65 143 -52
283 -136 418 -252 l32 -28 -863 -863 -864 -864 -48 54 c-344 382 -402 968
-140 1418 141 242 379 442 630 531 l50 17 3 221 2 221 190 0 190 0 0 -189z
m547 -1440 c330 -383 395 -920 166 -1364 -138 -267 -413 -508 -672 -589 l-41
-13 -2 -215 -3 -215 -185 0 -185 0 -3 188 -2 187 -54 0 c-238 0 -557 133 -753
313 l-44 41 858 858 c472 472 862 858 868 858 5 0 29 -22 52 -49z"/>
</g>
</svg>
